# xmcd
#
# Track frame offsets: 
#        150
#        8945
#        20452
#        31882
#        43897
#        54139
#        62782
#        74235
#        85615
#        96802
#        108305
#        118822
#        131190
#        144852
#        153697
#        165950
#        179637
#        192865
#        203940
#        215460
#
# Disc length: 3003 seconds
#
# Revision: 0
# Processed by: cddbd v1.5.2PL0 Copyright (c) Steve Scherf et al.
# Submitted via: ExactAudioCopy v0.99pb1
#
DISCID=1f0bb914
DTITLE=Don Gibson - The Masters
DYEAR=1997
DGENRE=Country
TTITLE0=Sweet Dreams
TTITLE1=Sea Of Heartbreak
TTITLE2=Oh, Lonesome Me
TTITLE3=I Can't Stop Loving You
TTITLE4=Settin' The Woods On Fire
TTITLE5=Baby We're Really In Love
TTITLE6=It's A Sin
TTITLE7=Take These Chains From My Heart
TTITLE8=Singing The Blues
TTITLE9=Lonely Street
TTITLE10=Lost Highway
TTITLE11=When I Stop Dreaming
TTITLE12=I Thought I Heard You Calling My Name
TTITLE13=Blue Blue Day
TTITLE14=Worried Man
TTITLE15=It Makes No Difference Now
TTITLE16=I'm Sorry For You My Friend
TTITLE17=(I'd Be) A Legend In My Time
TTITLE18=Born To Lose
TTITLE19=Above And Beyond
EXTD=
EXTT0=
EXTT1=
EXTT2=
EXTT3=
EXTT4=
EXTT5=
EXTT6=
EXTT7=
EXTT8=
EXTT9=
EXTT10=
EXTT11=
EXTT12=
EXTT13=
EXTT14=
EXTT15=
EXTT16=
EXTT17=
EXTT18=
EXTT19=
PLAYORDER=
